<svg width="128" height="128" viewBox="0 0 128 128" fill="none" xmlns="http://www.w3.org/2000/svg">
<rect x="1.5" y="1.5" width="125" height="125" rx="8.5" fill="#F5CB7A" stroke="black" stroke-width="3"/>
<g filter="url(#filter0_d_14_13)">
<mask id="path-2-inside-1_14_13" fill="white">
<path d="M20 25C20 22.2386 22.2386 20 25 20H68C90.0914 20 108 37.9086 108 60V68C108 90.0914 90.0914 108 68 108H25C22.2386 108 20 105.761 20 103V25Z"/>
</mask>
<path d="M20 25C20 22.2386 22.2386 20 25 20H68C90.0914 20 108 37.9086 108 60V68C108 90.0914 90.0914 108 68 108H25C22.2386 108 20 105.761 20 103V25Z" stroke="black" stroke-width="20" mask="url(#path-2-inside-1_14_13)"/>
<mask id="path-3-inside-2_14_13" fill="white">
<path d="M42 44.7667C42 42.1341 44.1341 40 46.7667 40H68.4405C77.5309 40 84.9 47.3691 84.9 56.4595V56.4595C84.9 65.5498 77.5308 72.9189 68.4405 72.9189H42V44.7667Z"/>
</mask>
<path d="M42 44.7667C42 42.1341 44.1341 40 46.7667 40H68.4405C77.5309 40 84.9 47.3691 84.9 56.4595V56.4595C84.9 65.5498 77.5308 72.9189 68.4405 72.9189H42V44.7667Z" stroke="black" stroke-width="20" mask="url(#path-3-inside-2_14_13)"/>
<rect x="42" y="72" width="11" height="27" fill="black"/>
</g>
<defs>
<filter id="filter0_d_14_13" x="18" y="18" width="96" height="96" filterUnits="userSpaceOnUse" color-interpolation-filters="sRGB">
<feFlood flood-opacity="0" result="BackgroundImageFix"/>
<feColorMatrix in="SourceAlpha" type="matrix" values="0 0 0 0 0 0 0 0 0 0 0 0 0 0 0 0 0 0 127 0" result="hardAlpha"/>
<feOffset dx="2" dy="2"/>
<feGaussianBlur stdDeviation="2"/>
<feComposite in2="hardAlpha" operator="out"/>
<feColorMatrix type="matrix" values="0 0 0 0 0 0 0 0 0 0 0 0 0 0 0 0 0 0 0.25 0"/>
<feBlend mode="normal" in2="BackgroundImageFix" result="effect1_dropShadow_14_13"/>
<feBlend mode="normal" in="SourceGraphic" in2="effect1_dropShadow_14_13" result="shape"/>
</filter>
</defs>
</svg>
